<?xml version="1.0" standalone="no"?>
<!DOCTYPE svg PUBLIC "-//W3C//DTD SVG 20010904//EN"
 "http://www.w3.org/TR/2001/REC-SVG-20010904/DTD/svg10.dtd">
<svg version="1.0" xmlns="http://www.w3.org/2000/svg"
 width="250.000000pt" height="290.000000pt" viewBox="0 0 250.000000 290.000000"
 preserveAspectRatio="xMidYMid meet">

<g transform="translate(0.000000,290.000000) scale(0.100000,-0.100000)"
fill="#000000" stroke="none">
<path d="M852 2660 c-38 -23 -68 -68 -77 -117 -8 -46 28 -120 75 -151 29 -20
45 -23 93 -20 49 4 62 9 92 38 105 102 38 270 -107 270 -25 0 -56 -8 -76 -20z"/>
<path d="M255 2196 c-75 -33 -94 -110 -41 -165 38 -39 83 -48 130 -26 85 40
86 149 2 189 -41 19 -52 19 -91 2z"/>
<path d="M1915 1755 c-96 -52 -131 -153 -86 -252 29 -63 88 -98 167 -98 53 0
69 4 105 30 54 38 83 94 82 156 -1 57 -24 100 -76 142 -31 26 -48 32 -100 35
-44 2 -71 -2 -92 -13z"/>
<path d="M470 1512 c-50 -51 -16 -112 62 -112 70 0 100 60 57 114 -29 37 -81
36 -119 -2z"/>
<path d="M1923 964 c-93 -46 -119 -150 -58 -230 93 -122 285 -59 285 93 0 64
-30 110 -90 140 -58 29 -75 28 -137 -3z"/>
<path d="M614 450 c-29 -12 -49 -62 -34 -89 28 -54 103 -64 135 -18 46 66 -23
139 -101 107z"/>
<path d="M1314 366 c-42 -19 -64 -52 -64 -99 0 -49 23 -83 65 -97 44 -15 80
-4 110 32 47 56 27 136 -41 164 -39 16 -32 16 -70 0z"/>
</g>
</svg>
